
        <svg xmlns="http://www.w3.org/2000/svg" xmlns:xlink="http://www.w3.org/1999/xlink" version="1.1" width="3162.0098614698286" 
        height="533.0720548450649" viewBox="0 0 3162.0098614698286 533.0720548450649">
			<rect fill="#393e46" width="3162.0098614698286" height="533.0720548450649"/>
			<g transform="scale(8.10049307349143) translate(10, 10)">
				<defs id="SvgjsDefs1121"><linearGradient id="SvgjsLinearGradient1126"><stop id="SvgjsStop1127" stop-color="#fbb040" offset="0"></stop><stop id="SvgjsStop1128" stop-color="#f9ed32" offset="1"></stop></linearGradient><linearGradient id="SvgjsLinearGradient1129"><stop id="SvgjsStop1130" stop-color="#fbb040" offset="0"></stop><stop id="SvgjsStop1131" stop-color="#f9ed32" offset="1"></stop></linearGradient></defs><g id="SvgjsG1122" featureKey="symbolFeature-0" transform="matrix(0.15943255090329866,0,0,0.15943255090329866,-1.0419810993022296,-1.0020382715483542)" fill="url(#SvgjsLinearGradient1126)"><g xmlns="http://www.w3.org/2000/svg"><g><defs><rect id="b" x="7" y="6.5" width="286" height="287.1"></rect></defs><clipPath id="a"><use xmlns:xlink="http://www.w3.org/1999/xlink" xlink:href="#b" style="" overflow="visible"></use></clipPath><g style="clip-path:url(#a);"><path d="M150,198.8c26.1,0,47.2,21.2,47.2,47.4s-21.1,47.4-47.2,47.4s-47.2-21.2-47.2-47.4S123.9,198.8,150,198.8z"></path><path d="M198.7,152.9c-0.1-1.1-0.1-2.2-0.1-3.3c0.1-12.4-4.5-24.4-13.3-33.2l-2-2c-8.7-8.7-20.5-13.4-32.8-13.3     c-0.2,0-0.5,0-0.7,0s-0.5,0-0.7,0c-12.3-0.2-24.1,4.6-32.8,13.3l-2,2c-8.8,8.8-13.3,20.8-13.3,33.2c0,1.1,0,2.2-0.1,3.3     c-1.3,23.3-19.8,42.4-43.1,44.3c-29.3,2.5-53.5-21.9-51.1-51.3c1.9-23.3,21-41.8,44.1-43.2c1-0.1,2.2-0.1,3.2-0.1     c12.4,0.1,24.3-4.5,33.1-13.3l2-2c8.8-8.8,13.3-20.8,13.3-33.2c0-1.6,0.1-3.3,0.2-4.9c2.1-22.9,20.8-41.1,43.7-42.8     C174,4.5,197,26.4,197,53.6c0,0.2,0,0.5,0,0.7c-0.2,12.3,4.6,24.2,13.3,32.9l2,2c8.8,8.8,20.7,13.4,33.1,13.3c1,0,2.1,0,3.2,0.1     c23.3,1.3,42.2,19.9,44.1,43.2c2.5,29.4-21.8,53.7-51.1,51.3C218.5,195.3,200.1,176.1,198.7,152.9z"></path></g></g></g></g><g id="SvgjsG1123" featureKey="nameFeature-0" transform="matrix(0.9751612308075768,0,0,0.9751612308075768,64.04967753838484,-0.4112247961458513)" fill="url(#SvgjsLinearGradient1129)"><path d="M2 40 l0 -32 l3.6 0 l5.24 19.6 l-0.04 -0.4 l0 -19.2 l4 0 l0 32 l-3.6 0 l-5.24 -17.6 l0.04 0.4 l0 17.2 l-4 0 z M21.3 40 l0 -32 l9.2 0 l0 3.2 l-5.2 0 l0 10.4 l4.4 0 l0 3.2 l-4.4 0 l0 11.2 l5.2 0 l0 4 l-9.2 0 z M35 8 l4.2 0 l1.2 24.08 l0.4 0 l2.4 -24.08 l3.4 0 l2.4 24.08 l0.4 0 l1.2 -24.08 l4.2 0 l-2.8 32 l-4.8 0 l-2.28 -16.72 l-2.32 16.72 l-4.8 0 z M71.8 40 l0 -32 l9.2 0 l0 3.2 l-5.2 0 l0 10.4 l4.4 0 l0 3.2 l-4.4 0 l0 11.2 l5.2 0 l0 4 l-9.2 0 z M86.3 40 l0 -16.8 c0 -11.16 0 -15.56 6 -15.56 s6 4.4 6 15.56 l0 16.8 l-4 0 l0 -9.2 l-4 0 l0 9.2 l-4 0 z M90.3 27.6 l4 0 l0 -4.4 c0 -10.4 0 -12.36 -2 -12.36 s-2 1.96 -2 12.36 l0 4.4 z M104.8 40 l0 -32 l6.48 0 c4.12 0 5.52 2.52 5.52 7.36 c0 4.36 -0.52 6.84 -1.76 8.04 l0 0.24 c1.04 0.36 1.36 2.24 1.76 6.92 l0.8 9.44 l-4 0 l-0.52 -9.44 c-0.28 -4.76 -1 -5.76 -2.2 -5.76 l-2.08 0 l0 15.2 l-4 0 z M108.8 21.6 l2.48 0 c1.4 0 1.8 -1.4 1.8 -6.24 c0 -3.16 -0.6 -4.16 -1.8 -4.16 l-2.48 0 l0 10.4 z M121.7 11.600000000000001 l0 -3.6 l12 0 l0 3.6 l-4 0 l0 28.4 l-4 0 l0 -28.4 l-4 0 z M138.6 40 l0 -32 l4 0 l0 13.6 l4 0 l0 -13.6 l4 0 l0 32 l-4 0 l0 -15.2 l-4 0 l0 15.2 l-4 0 z M168 23.16 c0 -11.16 0 -15.56 5.6 -15.56 c4.12 0 5.24 2.52 5.52 8.56 l-3.72 0 c-0.16 -4.36 -0.6 -5.36 -1.8 -5.36 c-1.84 0 -1.84 1.96 -1.84 12.36 c0 11.56 0 13.24 1.84 13.24 c1.32 0 1.72 -1 1.8 -6.16 l3.76 0 c-0.24 7.4 -1.24 10.16 -5.56 10.16 c-5.6 0 -5.6 -4.44 -5.6 -17.24 z M184.06 23.16 c0 -11.16 0.24 -15.56 6.24 -15.56 s6.24 4.4 6.24 15.56 c0 12.8 -0.24 17.24 -6.24 17.24 s-6.24 -4.44 -6.24 -17.24 z M188.06 23.16 c0 11.56 0 13.24 2.24 13.24 s2.24 -1.68 2.24 -13.24 c0 -10.4 0 -12.36 -2.24 -12.36 s-2.24 1.96 -2.24 12.36 z M202.64000000000001 40 l0 -32 l4 0 l0 28 l5.2 0 l0 4 l-9.2 0 z M216.74 40 l0 -32 l4 0 l0 28 l5.2 0 l0 4 l-9.2 0 z M230.84 40 l0 -32 l9.2 0 l0 3.2 l-5.2 0 l0 10.4 l4.4 0 l0 3.2 l-4.4 0 l0 11.2 l5.2 0 l0 4 l-9.2 0 z M244.94 23.16 c0 -11.16 0 -15.56 5.6 -15.56 c4.12 0 5.24 2.52 5.52 8.56 l-3.72 0 c-0.16 -4.36 -0.6 -5.36 -1.8 -5.36 c-1.84 0 -1.84 1.96 -1.84 12.36 c0 11.56 0 13.24 1.84 13.24 c1.32 0 1.72 -1 1.8 -6.16 l3.76 0 c-0.24 7.4 -1.24 10.16 -5.56 10.16 c-5.6 0 -5.6 -4.44 -5.6 -17.24 z M259.79999999999995 11.600000000000001 l0 -3.6 l12 0 l0 3.6 l-4 0 l0 28.4 l-4 0 l0 -28.4 l-4 0 z M276.7 40 l0 -32 l4 0 l0 32 l-4 0 z M286 8 l4.2 0 l2.4 23.6 l0.4 0 l2.4 -23.6 l4.2 0 l-4.4 32 l-4.8 0 z M304.9 40 l0 -32 l9.2 0 l0 3.2 l-5.2 0 l0 10.4 l4.4 0 l0 3.2 l-4.4 0 l0 11.2 l5.2 0 l0 4 l-9.2 0 z"></path></g>
			</g>
		</svg>
	