<svg xmlns="http://www.w3.org/2000/svg" viewBox="0 0 160 160" role="img" aria-label="Abstract helm arcs and north star">
  <title>Minimal Helm North Star — Variant 2</title>
  <defs>
    <radialGradient id="star-core-2" cx="50%" cy="45%" r="60%">
      <stop offset="0%" stop-color="#FFF6CF" />
      <stop offset="50%" stop-color="#F2C059" />
      <stop offset="100%" stop-color="#AF6E21" />
    </radialGradient>
    <linearGradient id="arc-2" x1="0%" y1="0%" x2="100%" y2="0%">
      <stop offset="0%" stop-color="#EAD9B9" />
      <stop offset="100%" stop-color="#9A6F3B" />
    </linearGradient>
  </defs>

  <g transform="translate(80 80)">
    <!-- Offset helm arcs -->
    <path d="M -60 -12 A 60 60 0 0 1 60 -12" fill="none" stroke="url(#arc-2)" stroke-width="8" stroke-linecap="round" />
    <path d="M -56 16 A 56 56 0 0 0 56 16" fill="none" stroke="#CFA565" stroke-width="6" stroke-linecap="round" opacity="0.8" />

    <!-- Minimal grips -->
    <g fill="#B7823B">
      <circle cx="0" cy="-66" r="3.5" />
      <circle cx="0" cy="66" r="3.5" />
      <circle cx="66" cy="0" r="3.5" />
      <circle cx="-66" cy="0" r="3.5" />
    </g>

    <!-- Cardinal beams -->
    <g stroke="#D6B075" stroke-width="3" stroke-linecap="round" opacity="0.75">
      <line x1="0" y1="-46" x2="0" y2="-14" />
      <line x1="0" y1="14" x2="0" y2="46" />
      <line x1="-46" y1="0" x2="-14" y2="0" />
      <line x1="14" y1="0" x2="46" y2="0" />
    </g>

    <!-- North star -->
    <path d="M 0,-26 L -2,-6 L -13,-13 L -6,-2 L -26,0 L -6,2 L -13,13 L -2,6 L 0,34 L 2,6 L 13,13 L 6,2 L 26,0 L 6,-2 L 13,-13 L 2,-6 Z"
          fill="url(#star-core-2)" />
  </g>
</svg>
